<svg xmlns="http://www.w3.org/2000/svg" xmlns:xlink="http://www.w3.org/1999/xlink" width="500" zoomAndPan="magnify" viewBox="0 0 375 374.999991" height="500" preserveAspectRatio="xMidYMid meet" version="1.0"><defs><clipPath id="046bc15145"><path d="M 290 53 L 328.890625 53 L 328.890625 94 L 290 94 Z M 290 53 " clip-rule="nonzero"/></clipPath><clipPath id="5e2af3ce0a"><path d="M 46.171875 263.625 L 176 263.625 L 176 374.910156 L 46.171875 374.910156 Z M 46.171875 263.625 " clip-rule="nonzero"/></clipPath></defs><g clip-path="url(#046bc15145)"><path fill="#000000" d="M 316.421875 93.460938 C 314.558594 93.460938 312.714844 92.605469 311.523438 90.992188 C 309.523438 88.289062 310.097656 84.476562 312.800781 82.480469 C 314.953125 80.890625 316.320312 78.621094 316.640625 76.089844 C 316.953125 73.628906 316.238281 71.183594 314.628906 69.199219 C 311.09375 64.847656 304.484375 64.066406 299.886719 67.457031 C 297.1875 69.457031 293.375 68.882812 291.378906 66.179688 C 289.382812 63.476562 289.953125 59.664062 292.65625 57.667969 C 302.40625 50.46875 316.507812 52.199219 324.082031 61.53125 C 327.808594 66.117188 329.453125 71.832031 328.71875 77.621094 C 327.972656 83.484375 324.890625 88.683594 320.035156 92.269531 C 318.949219 93.074219 317.679688 93.460938 316.421875 93.460938 " fill-opacity="1" fill-rule="nonzero"/></g><path fill="#000000" d="M 290.167969 73.160156 C 288.304688 73.160156 286.460938 72.304688 285.265625 70.691406 C 283.265625 67.988281 283.839844 64.179688 286.546875 62.179688 L 292.652344 57.664062 C 295.355469 55.664062 299.167969 56.238281 301.167969 58.941406 C 303.167969 61.644531 302.59375 65.457031 299.886719 67.453125 L 293.78125 71.96875 C 292.691406 72.773438 291.425781 73.160156 290.167969 73.160156 " fill-opacity="1" fill-rule="nonzero"/><path fill="#000000" d="M 290.167969 112.851562 C 288.300781 112.851562 286.457031 111.992188 285.265625 110.378906 C 283.265625 107.675781 283.839844 103.863281 286.546875 101.867188 L 312.800781 82.480469 C 315.507812 80.484375 319.320312 81.058594 321.316406 83.761719 C 323.3125 86.460938 322.738281 90.273438 320.035156 92.269531 L 293.777344 111.65625 C 292.6875 112.460938 291.421875 112.851562 290.167969 112.851562 " fill-opacity="1" fill-rule="nonzero"/><path fill="#000000" d="M 271.347656 262.386719 L 156.996094 262.386719 C 155.261719 262.386719 153.609375 261.648438 152.457031 260.355469 C 151.300781 259.0625 150.753906 257.339844 150.945312 255.617188 C 154.457031 224.667969 136.285156 196.328125 136.097656 196.046875 C 135.265625 194.765625 134.945312 193.21875 135.199219 191.710938 C 135.253906 191.390625 140.640625 159.410156 142.429688 134.34375 C 141.867188 124.957031 138.355469 117.847656 131.992188 113.203125 C 130.421875 112.054688 129.492188 110.230469 129.492188 108.289062 L 129.492188 24.964844 C 129.492188 11.238281 140.664062 0.0703125 154.394531 0.0703125 L 271.347656 0.0703125 C 285.078125 0.0703125 296.25 11.238281 296.25 24.964844 L 296.25 126.6875 C 296.25 130.046875 293.523438 132.773438 290.164062 132.773438 C 286.800781 132.773438 284.078125 130.046875 284.078125 126.6875 L 284.078125 24.964844 C 284.078125 17.945312 278.367188 12.242188 271.347656 12.242188 L 154.394531 12.242188 C 147.375 12.242188 141.664062 17.945312 141.664062 24.964844 L 141.664062 105.367188 C 147.613281 110.570312 153.847656 119.453125 154.605469 134.074219 C 154.621094 134.316406 154.617188 134.566406 154.601562 134.8125 C 153.046875 156.941406 148.863281 183.609375 147.578125 191.488281 C 151.738281 198.574219 164.402344 222.511719 163.53125 250.214844 L 271.347656 250.214844 C 278.367188 250.214844 284.078125 244.511719 284.078125 237.496094 L 284.078125 226.761719 C 284.078125 223.398438 286.800781 220.675781 290.164062 220.675781 C 293.523438 220.675781 296.25 223.398438 296.25 226.761719 L 296.25 237.496094 C 296.25 251.222656 285.078125 262.386719 271.347656 262.386719 " fill-opacity="1" fill-rule="nonzero"/><path fill="#000000" d="M 162.46875 337.726562 C 161.277344 337.726562 160.078125 337.375 159.023438 336.652344 C 156.253906 334.746094 155.550781 330.957031 157.460938 328.1875 L 167.332031 313.847656 C 168.046875 312.808594 169.070312 312.015625 170.261719 311.585938 C 170.792969 311.386719 224.480469 291.386719 241.898438 255.566406 C 243.371094 252.542969 247.015625 251.285156 250.039062 252.753906 C 253.0625 254.222656 254.320312 257.867188 252.847656 260.890625 C 235 297.582031 186.566406 318.257812 176.285156 322.304688 L 167.488281 335.085938 C 166.308594 336.804688 164.402344 337.726562 162.46875 337.726562 " fill-opacity="1" fill-rule="nonzero"/><path fill="#000000" d="M 84.585938 279.847656 C 83.292969 279.847656 81.992188 279.4375 80.886719 278.589844 C 78.21875 276.546875 77.710938 272.726562 79.757812 270.058594 L 87.460938 260.015625 C 87.675781 244.847656 88.914062 191.355469 95.828125 177.957031 C 103.085938 163.839844 112.207031 140.667969 114.386719 110.472656 C 114.6875 106.242188 117.105469 102.429688 120.855469 100.28125 C 124.734375 98.0625 129.4375 97.921875 133.445312 99.902344 C 135.457031 100.894531 137.386719 102.066406 139.183594 103.382812 C 145.734375 108.164062 153.742188 117.378906 154.605469 134.074219 C 154.621094 134.316406 154.617188 134.566406 154.601562 134.8125 C 153.046875 156.941406 148.863281 183.605469 147.578125 191.488281 C 152.074219 199.140625 166.5 226.484375 163.046875 256.988281 C 162.578125 261.144531 161.769531 265.269531 160.652344 269.253906 C 159.746094 272.492188 156.386719 274.378906 153.144531 273.46875 C 149.910156 272.5625 148.023438 269.199219 148.929688 265.964844 C 149.875 262.613281 150.550781 259.132812 150.945312 255.621094 C 154.457031 224.667969 136.285156 196.328125 136.097656 196.046875 C 135.265625 194.765625 134.945312 193.21875 135.199219 191.710938 C 135.253906 191.390625 140.640625 159.410156 142.429688 134.34375 C 141.867188 124.957031 138.355469 117.847656 131.992188 113.203125 C 130.753906 112.296875 129.4375 111.496094 128.050781 110.816406 C 127.523438 110.550781 127.078125 110.746094 126.910156 110.84375 C 126.550781 111.046875 126.535156 111.265625 126.535156 111.339844 C 124.199219 143.597656 114.433594 168.398438 106.648438 183.527344 C 102.046875 192.453125 99.890625 236.503906 99.609375 262.179688 C 99.59375 263.492188 99.15625 264.769531 98.355469 265.8125 L 89.421875 277.464844 C 88.222656 279.027344 86.414062 279.847656 84.585938 279.847656 " fill-opacity="1" fill-rule="nonzero"/><path fill="#000000" d="M 295.269531 198.804688 C 294.371094 198.804688 293.464844 199.003906 292.609375 199.417969 L 284.734375 203.261719 C 282.671875 204.261719 281.128906 206.007812 280.382812 208.175781 C 279.632812 210.339844 279.773438 212.667969 280.78125 214.726562 L 281.347656 215.894531 C 283.417969 220.144531 288.566406 221.917969 292.820312 219.84375 L 299.699219 216.492188 C 301.429688 215.652344 302.722656 214.183594 303.351562 212.371094 C 303.976562 210.554688 303.859375 208.601562 303.015625 206.878906 L 300.75 202.222656 C 299.695312 200.0625 297.523438 198.804688 295.269531 198.804688 Z M 289.09375 232.878906 C 281.402344 232.878906 273.996094 228.589844 270.40625 221.226562 L 269.835938 220.058594 C 267.40625 215.078125 267.0625 209.449219 268.871094 204.210938 C 270.675781 198.96875 274.417969 194.746094 279.398438 192.316406 L 287.277344 188.480469 C 296.328125 184.070312 307.28125 187.84375 311.691406 196.890625 L 313.960938 201.542969 C 316.226562 206.195312 316.546875 211.445312 314.863281 216.335938 C 313.175781 221.226562 309.6875 225.167969 305.035156 227.433594 L 298.152344 230.785156 C 295.234375 232.207031 292.140625 232.878906 289.09375 232.878906 " fill-opacity="1" fill-rule="nonzero"/><path fill="#000000" d="M 295.269531 165.226562 C 294.371094 165.226562 293.46875 165.421875 292.609375 165.839844 L 284.734375 169.675781 C 282.671875 170.683594 281.128906 172.425781 280.382812 174.59375 C 279.632812 176.757812 279.773438 179.085938 280.78125 181.144531 L 281.347656 182.3125 C 282.351562 184.371094 284.097656 185.917969 286.265625 186.664062 C 288.433594 187.410156 290.761719 187.269531 292.820312 186.261719 L 299.699219 182.910156 C 303.269531 181.171875 304.753906 176.859375 303.015625 173.292969 L 300.75 168.640625 C 299.695312 166.484375 297.523438 165.226562 295.269531 165.226562 Z M 289.078125 199.3125 C 286.800781 199.3125 284.515625 198.933594 282.296875 198.167969 C 277.054688 196.363281 272.832031 192.625 270.40625 187.640625 L 269.835938 186.476562 C 267.40625 181.496094 267.0625 175.867188 268.871094 170.628906 C 270.675781 165.390625 274.417969 161.167969 279.398438 158.738281 L 287.277344 154.898438 C 296.328125 150.488281 307.28125 154.261719 311.691406 163.3125 L 313.960938 167.964844 C 318.640625 177.5625 314.636719 189.171875 305.035156 193.851562 L 298.152344 197.207031 C 295.28125 198.605469 292.1875 199.3125 289.078125 199.3125 " fill-opacity="1" fill-rule="nonzero"/><path fill="#000000" d="M 295.273438 131.636719 C 294.359375 131.636719 293.453125 131.847656 292.609375 132.257812 L 284.734375 136.09375 C 282.671875 137.097656 281.128906 138.84375 280.382812 141.011719 C 279.632812 143.179688 279.773438 145.503906 280.78125 147.566406 L 281.347656 148.726562 C 282.351562 150.789062 284.097656 152.332031 286.265625 153.082031 C 288.433594 153.828125 290.761719 153.683594 292.820312 152.683594 L 299.699219 149.328125 C 303.269531 147.589844 304.753906 143.28125 303.015625 139.714844 L 300.75 135.0625 C 300.039062 133.601562 298.800781 132.503906 297.261719 131.976562 C 296.609375 131.75 295.9375 131.636719 295.273438 131.636719 Z M 289.078125 165.730469 C 286.800781 165.730469 284.515625 165.351562 282.296875 164.585938 C 277.054688 162.78125 272.832031 159.042969 270.40625 154.0625 L 269.835938 152.898438 C 267.40625 147.914062 267.0625 142.285156 268.871094 137.046875 C 270.675781 131.804688 274.417969 127.582031 279.398438 125.152344 L 287.277344 121.320312 C 291.660156 119.179688 296.617188 118.878906 301.226562 120.46875 C 305.839844 122.054688 309.558594 125.34375 311.695312 129.730469 L 313.960938 134.378906 C 318.640625 143.976562 314.636719 155.59375 305.035156 160.269531 L 298.152344 163.621094 C 295.28125 165.023438 292.1875 165.730469 289.078125 165.730469 " fill-opacity="1" fill-rule="nonzero"/><g clip-path="url(#5e2af3ce0a)"><path fill="#000000" d="M 152.714844 374.910156 C 151.453125 374.910156 150.183594 374.515625 149.089844 373.707031 C 146.390625 371.703125 145.828125 367.890625 147.835938 365.195312 L 162.511719 345.460938 C 164.148438 343.257812 163.691406 340.132812 161.488281 338.496094 L 78.789062 277.03125 C 77.722656 276.238281 76.410156 275.90625 75.089844 276.101562 C 73.773438 276.292969 72.613281 276.984375 71.820312 278.054688 L 57.144531 297.785156 C 55.140625 300.484375 51.328125 301.042969 48.628906 299.039062 C 45.929688 297.035156 45.367188 293.222656 47.375 290.523438 L 62.050781 270.792969 C 64.785156 267.117188 68.785156 264.726562 73.320312 264.058594 C 77.851562 263.390625 82.375 264.53125 86.054688 267.265625 L 168.75 328.726562 C 176.339844 334.371094 177.925781 345.132812 172.28125 352.722656 L 157.605469 372.453125 C 156.414062 374.058594 154.578125 374.910156 152.714844 374.910156 " fill-opacity="1" fill-rule="nonzero"/></g><path fill="#000000" d="M 223.382812 37.683594 L 202.351562 37.683594 C 198.992188 37.683594 196.265625 34.957031 196.265625 31.597656 C 196.265625 28.238281 198.992188 25.515625 202.351562 25.515625 L 223.382812 25.515625 C 226.746094 25.515625 229.46875 28.238281 229.46875 31.597656 C 229.46875 34.957031 226.746094 37.683594 223.382812 37.683594 " fill-opacity="1" fill-rule="nonzero"/><path fill="#000000" d="M 288.605469 61.195312 L 135.574219 61.195312 C 132.210938 61.195312 129.488281 58.46875 129.488281 55.109375 C 129.488281 51.746094 132.210938 49.027344 135.574219 49.027344 L 288.605469 49.027344 C 291.964844 49.027344 294.691406 51.746094 294.691406 55.109375 C 294.691406 58.46875 291.964844 61.195312 288.605469 61.195312 " fill-opacity="1" fill-rule="nonzero"/><path fill="#000000" d="M 274.050781 219.613281 L 151.101562 219.613281 C 147.742188 219.613281 145.015625 216.886719 145.015625 213.527344 C 145.015625 210.164062 147.742188 207.441406 151.101562 207.441406 L 274.050781 207.441406 C 277.414062 207.441406 280.140625 210.164062 280.140625 213.527344 C 280.140625 216.886719 277.414062 219.613281 274.050781 219.613281 " fill-opacity="1" fill-rule="nonzero"/><path fill="#000000" d="M 79.492188 293.167969 C 74.914062 293.167969 71.191406 296.890625 71.191406 301.464844 C 71.191406 306.042969 74.914062 309.765625 79.492188 309.765625 C 84.066406 309.765625 87.792969 306.042969 87.792969 301.464844 C 87.792969 296.890625 84.066406 293.167969 79.492188 293.167969 " fill-opacity="1" fill-rule="nonzero"/><path fill="#000000" d="M 174.863281 111.566406 L 167.265625 111.566406 L 167.265625 90.429688 L 188.410156 90.429688 L 188.410156 98.023438 L 174.863281 98.023438 L 174.863281 111.566406 " fill-opacity="1" fill-rule="nonzero"/><path fill="#000000" d="M 256.914062 111.566406 L 249.316406 111.566406 L 249.316406 98.023438 L 235.769531 98.023438 L 235.769531 90.429688 L 256.914062 90.429688 L 256.914062 111.566406 " fill-opacity="1" fill-rule="nonzero"/><path fill="#000000" d="M 188.410156 180.050781 L 167.265625 180.050781 L 167.265625 158.914062 L 174.863281 158.914062 L 174.863281 172.457031 L 188.410156 172.457031 L 188.410156 180.050781 " fill-opacity="1" fill-rule="nonzero"/><path fill="#000000" d="M 256.914062 180.050781 L 235.769531 180.050781 L 235.769531 172.457031 L 249.316406 172.457031 L 249.316406 158.914062 L 256.914062 158.914062 L 256.914062 180.050781 " fill-opacity="1" fill-rule="nonzero"/><path fill="#000000" d="M 200.292969 123.445312 L 189.65625 123.445312 L 189.65625 112.816406 L 200.292969 112.816406 Z M 182.0625 105.222656 L 182.0625 131.046875 L 207.894531 131.046875 L 207.894531 105.222656 L 182.0625 105.222656 " fill-opacity="1" fill-rule="nonzero"/><path fill="#000000" d="M 234.523438 123.445312 L 223.886719 123.445312 L 223.886719 112.816406 L 234.523438 112.816406 Z M 216.285156 105.222656 L 216.285156 131.046875 L 242.117188 131.046875 L 242.117188 105.222656 L 216.285156 105.222656 " fill-opacity="1" fill-rule="nonzero"/><path fill="#000000" d="M 200.292969 157.664062 L 189.65625 157.664062 L 189.65625 147.035156 L 200.292969 147.035156 Z M 182.0625 139.433594 L 182.0625 165.257812 L 207.894531 165.257812 L 207.894531 139.433594 L 182.0625 139.433594 " fill-opacity="1" fill-rule="nonzero"/><path fill="#000000" d="M 233.214844 156.855469 L 233.214844 165.464844 L 241.828125 165.464844 L 241.828125 148.25 L 233.214844 148.25 L 233.214844 139.640625 L 215.996094 139.640625 L 215.996094 148.25 L 224.605469 148.25 L 224.605469 156.855469 L 233.214844 156.855469 " fill-opacity="1" fill-rule="nonzero"/><path fill="#000000" d="M 215.996094 165.464844 L 224.605469 165.464844 L 224.605469 156.855469 L 215.996094 156.855469 L 215.996094 165.464844 " fill-opacity="1" fill-rule="nonzero"/></svg>